<svg class="logo" id="logo" data-name="logo" xmlns="http://www.w3.org/2000/svg" viewBox="0 0 614.02 150.06"><defs><style>.cls-3{fill:#fff}</style></defs><g id="Layer_1-2" data-name="Layer 1"><path class="cls-3" d="M89.56 70.9c-17.43 0-30.69 14.48-30.86 33.67-.07 7.29 2.06 13.16 6.32 17.47 4.56 4.6 11.54 7.13 19.65 7.13 17.27-.07 30.3-14.27 30.3-33.03 0-15.8-9.5-25.24-25.41-25.24Zm-4.65 46.45c-6.95 0-11.1-4.78-11.1-12.78 0-5.21 1.3-10.45 3.56-14.39 2.78-4.84 6.8-7.42 11.62-7.46 7.01 0 10.87 4.74 10.87 13.34 0 10.58-5.14 21.29-14.95 21.29ZM147.4 87.11c-4.57 0-8.58 2.17-11.92 6.45l-.22.29h-1.44l1.04-5.46h-12.67l-10.3 52.98h13.4l3.61-18.46h1.28l.22.37c2.3 3.91 6.13 5.89 11.39 5.89 13.21 0 19.23-13 19.23-25.08 0-10.16-5.47-16.98-13.62-16.98Zm-9.54 32.97c-5.17 0-7.01-4.7-7.01-9.09 0-5.8 3.47-13.83 9.98-13.83 4.04 0 6.36 3.11 6.36 8.53s-2.53 14.39-9.33 14.39ZM183.29 95.96h7.63l1.54-7.57h-7.62l2.57-13.24h-13.07l-2.57 13.24h-5.22l-1.54 7.57h5.2l-3.78 19.82c-.82 4.22-.36 7.41 1.35 9.49 1.83 2.22 5.2 3.34 10.03 3.34 2.87 0 5.05-.44 6.82-.9l1.8-9.16c-.68.05-1.4.09-1.96.09-2.03 0-3.25-.38-3.97-1.24-.7-.83-.87-2.03-.54-3.9l3.33-17.54ZM197.84 88.39l-7.65 39.42h13.4l7.65-39.42h-13.4Zm3.14-16.45-1.89 9.97h13.4l1.88-9.97h-13.39ZM235.49 87.19c-13.59 0-23.08 9.95-23.08 24.2 0 12.23 9.82 17.7 19.55 17.7 6.68 0 12.44-2.24 16.66-6.49 4.34-4.36 6.7-10.59 6.66-17.55-.08-13.18-10.71-17.86-19.79-17.86Zm1.82 31.09c-1.45 1.46-3.16 2.2-5.11 2.2-4.05 0-6.28-3.03-6.28-8.53-.05-3.23.8-10.31 4.39-13.95 1.39-1.41 3.02-2.12 4.86-2.12 4.1 0 6.45 3.16 6.45 8.69.06 4.57-1.24 10.59-4.31 13.71ZM298.59 90.58c-1.87-2.27-4.77-3.47-8.38-3.47-5.06 0-9.66 2.62-12.94 7.37l-.23.33h-1.55l1.29-6.42h-12.75l-7.65 39.42h13.39l4.22-21.94c1.01-4.97 4.3-8.31 8.19-8.31 1.8 0 3.15.54 4.02 1.6 1.04 1.27 1.32 3.19.81 5.72l-4.48 22.93h13.4l4.61-23.95c1.13-5.76.46-10.36-1.95-13.28ZM336.9 93.96c-1.7-.58-3.21-1.07-4.54-1.5-6.05-1.96-8.81-2.85-8.81-5.94 0-3.35 3.6-4.85 7.17-4.85 4.4 0 7.24 1.94 7.74 5.22h14.88c.02-4.08-1.22-7.45-3.68-10.02-4.99-5.2-13.7-5.97-18.46-5.97-10.73 0-22.19 4.75-22.19 18.1 0 8.84 5.91 12.58 16.82 16.38l1.21.42c5.66 1.95 9.4 3.23 9.49 6.37 0 2.59-1.43 5.66-8.22 5.66-5.65 0-9.32-2.59-9.77-6.82h-15.47c.07 4.81 1.57 8.73 4.47 11.67 5.56 5.65 15.1 6.49 20.29 6.49 17.93 0 24.29-10.49 24.29-19.47 0-9.65-7.86-13.18-15.22-15.74ZM375.89 120c-4.16 0-6.45-2.89-6.45-8.13 0-6.06 2.62-15.67 9.66-15.67 4.39 0 5.44 3.16 5.74 5.85h12.65c-.52-9.46-7.07-14.86-18.07-14.86-13.61 0-23.48 10.31-23.48 24.52 0 5.23 1.96 17.38 20.11 17.38 10.63-.08 18.39-6.3 20.44-16.31h-12.56c-1.3 4.6-4.21 7.22-8.04 7.22ZM435.97 89.79c-2.81-1.83-6.61-2.68-11.94-2.68-11.39 0-18.43 4.58-20.43 13.26h12.72c1-3.25 3.29-4.9 6.82-4.9s4.6 2.05 4.6 3.96c0 4.91-4.9 5.43-12.9 5.89-10.52.59-15.42 4.64-15.42 12.73 0 6.76 4.46 10.8 11.93 10.8 3.86 0 7.75-1.97 10.41-5.26l.22-.28h1.27v.75c0 1.44.16 2.83.43 3.75h13.07c-.62-1.19-.61-3.14.02-6.15l3.53-18.04c1.29-6.43-.17-11.09-4.33-13.83Zm-10.65 24.23c-1.22 6-4.91 7.26-7.79 7.26-4.34 0-5.25-2.45-5.25-4.52 0-4.63 4.61-5.31 6.82-5.63 2.61-.41 4.43-.89 5.9-1.55l1.33-.6-1.01 5.04ZM484.63 90.58c-1.87-2.27-4.76-3.47-8.38-3.47-5.06 0-9.65 2.62-12.94 7.37l-.22.33h-1.55l1.28-6.42h-12.75l-7.65 39.42h13.4l4.21-21.94c1.02-4.97 4.31-8.31 8.2-8.31 1.8 0 3.15.54 4.02 1.6 1.04 1.27 1.31 3.19.81 5.72l-4.48 22.93h13.39l4.62-23.95c1.13-5.76.45-10.36-1.96-13.28ZM530.76 90.58c-1.87-2.27-4.76-3.47-8.38-3.47-5.05 0-9.65 2.62-12.94 7.37l-.22.33h-1.55l1.28-6.42h-12.74l-7.66 39.42h13.4l4.21-21.94c1.02-4.97 4.31-8.31 8.2-8.31 1.8 0 3.15.54 4.02 1.6 1.04 1.27 1.31 3.19.81 5.72l-4.48 22.93h13.39l4.62-23.95c1.13-5.76.45-10.36-1.96-13.28ZM570.44 89.8c-3.04-1.89-6.61-2.77-11.23-2.77-13.1 0-22.6 10.01-22.6 23.8 0 11.16 7.83 18.1 20.43 18.1 4.66 0 8.56-1.06 12.29-3.34 3.24-1.99 5.63-4.91 6.96-8.48h-12.94c-1.14 2.02-3.36 3.13-6.31 3.13-4.87 0-7.62-2.99-7.73-8.44v-.76h28.34c1.32-10.04-1.17-17.38-7.21-21.24Zm-4.71 14-.03.72h-15.58l.26-.96c1.39-4.96 4.66-7.93 8.75-7.93 1.93 0 3.5.61 4.65 1.81 1.39 1.44 2.06 3.64 1.95 6.36ZM612.08 87.51c-5.08 0-8.96 2.34-12.21 7.36l-.22.34h-1.57l1.37-6.82H586.7l-7.65 39.42h13.39l2.93-15.28c2.04-10.5 7.12-14.6 16.42-13.26l2.23-11.6c-.47-.09-1.16-.16-1.94-.16Z"/><path d="M92.31 63.21C66.64 60.25 64.05 55.23 70 24.67c.07-.34-.15-.51-.41-.51s-.56.16-.67.49c-1.72 5.1-3.28 9.45-4.81 13.18C40.25 34.87 37.92 30.29 43.72.51c.06-.34-.16-.51-.42-.51s-.55.16-.67.49C32.37 30.99 27.66 34.88.65 36.94c-.67.05-.92 1.01-.29 1.08C26.03 40.98 28.64 45 22.69 75.56c-.07.34.15.52.42.52.25 0 .55-.17.66-.5 1.72-5.1 3.28-9.45 4.81-13.17 23.87 2.95 26.2 7.53 20.39 37.31-.06.34.16.51.42.51s.56-.16.67-.49c5.03-14.95 9.15-20.28 14.79-25.36 2.93-2.64 6.29-4.9 10.62-6.64 4.34-1.72 9.67-2.92 16.55-3.45.67-.05.93-1 .29-1.08ZM29.2 60.9c7.17-16.62 14.17-19.87 34.29-21.57C56.32 55.95 49.32 59.21 29.2 60.9Z" style="fill:#f4f4f4"/><path d="M582.12 135.21v14.85h10.14v-14.85h-10.14Zm-16.91 0v14.85h10.15v-14.85h-10.15Zm-16.9 0v14.85h10.14v-14.85h-10.14Zm-16.9 0v14.85h10.14v-14.85h-10.14Zm-16.9 0v14.85h10.14v-14.85h-10.14Zm-27.05 0v14.85h20.29v-14.85h-20.29Zm-27.05 0v14.85h20.29v-14.85h-20.29Zm-321.15 0 237 14.85h77.39v-14.85H139.26Z" style="fill:#f0efef"/></g></svg>